<?xml version="1.0" standalone="no"?>
<!DOCTYPE svg PUBLIC "-//W3C//DTD SVG 20010904//EN"
 "http://www.w3.org/TR/2001/REC-SVG-20010904/DTD/svg10.dtd">
<svg version="1.0" xmlns="http://www.w3.org/2000/svg"
 width="264.000000pt" height="264.000000pt" viewBox="0 0 264.000000 264.000000"
 preserveAspectRatio="xMidYMid meet">
<metadata>
Created by potrace 1.14, written by Peter Selinger 2001-2017
</metadata>
<g transform="translate(0.000000,264.000000) scale(0.100000,-0.100000)"
fill="#000000" stroke="none">
<path d="M236 2293 c3 -26 8 -56 10 -65 5 -29 -13 -20 -26 12 -17 41 -35 52
-26 16 6 -24 12 -73 31 -231 2 -22 7 -74 10 -115 4 -41 8 -97 11 -125 2 -27 6
-130 9 -227 5 -163 4 -178 -12 -178 -9 0 -25 8 -35 17 -26 23 -62 28 -54 8 4
-11 -2 -15 -27 -15 -18 -1 -43 -10 -57 -21 l-24 -21 35 -31 c42 -38 53 -62 35
-79 -7 -7 -11 -19 -8 -26 2 -7 -1 -19 -7 -26 -9 -11 -9 -15 1 -19 7 -3 -2 -8
-20 -12 -18 -4 -35 -12 -38 -16 -3 -5 -14 -9 -25 -9 -18 0 -19 -1 -3 -25 17
-27 70 -35 90 -15 7 7 19 7 35 1 17 -6 35 -5 58 5 18 8 37 14 41 14 9 0 4
-153 -6 -220 -9 -63 -17 -305 -9 -298 4 4 9 26 11 49 4 54 22 106 38 112 12 5
20 39 41 172 22 146 29 181 34 187 4 4 54 -19 111 -51 176 -97 239 -131 394
-213 189 -99 494 -249 611 -300 50 -21 99 -43 110 -48 69 -33 364 -134 464
-160 147 -38 199 -45 346 -45 126 1 155 9 225 64 34 27 24 31 -35 18 -77 -17
-239 -14 -335 6 -303 65 -838 303 -1291 573 -31 19 -67 39 -80 46 -38 20 -341
207 -367 226 l-22 17 59 45 c32 25 71 54 86 64 14 11 34 27 44 35 10 9 33 27
51 41 46 34 192 152 208 168 8 6 82 67 165 135 190 154 261 220 281 262 9 18
30 45 47 60 53 44 27 37 -31 -9 -30 -24 -67 -46 -81 -49 -14 -4 -48 -24 -75
-45 -27 -21 -87 -65 -134 -97 -46 -31 -133 -94 -194 -138 -122 -89 -451 -308
-498 -331 l-30 -16 6 100 c7 100 9 586 3 650 -5 50 -16 80 -30 80 -11 1 -53
52 -87 109 -28 44 -42 38 -34 -16z"/>
</g>
</svg>
